<svg version="1.2" baseProfile="tiny-ps" xmlns="http://www.w3.org/2000/svg" viewBox="0 0 20 20" width="20" height="20">
	<title>Group 172</title>
	<style>
		tspan { white-space:pre }
		.s0 { fill: #3b5999 } 
		.s1 { fill: #ffffff } 
	</style>
	<g id="Group 172">
		<path id="Vector" class="s0" d="m20 2.5v15c0 1.38-1.12 2.5-2.5 2.5h-15c-1.38 0-2.5-1.12-2.5-2.5v-15c0-1.38 1.12-2.5 2.5-2.5h15c1.38 0 2.5 1.12 2.5 2.5z" />
		<path id="Vector" class="s1" d="m16.87 10l-1.25 3.13h-1.87v6.87h-3.75v-6.87h-2.5v-3.13h2.5v-2.5c0-2.07 1.68-3.75 3.75-3.75h2.5v3.13h-1.25c-0.69 0-1.25-0.07-1.25 0.63v2.5h3.13z" />
	</g>
</svg>