<svg version="1.2" baseProfile="tiny-ps" xmlns="http://www.w3.org/2000/svg" viewBox="0 0 20 20" width="20" height="20">
	<title>Group 87</title>
	<style>
		tspan { white-space:pre }
		.s0 { fill: #273b7a } 
		.s1 { fill: #121149 } 
		.s2 { fill: #4285f4 } 
		.s3 { fill: #ea4335 } 
		.s4 { fill: #fbbc05 } 
		.s5 { fill: #34a853 } 
	</style>
	<g id="Group 87">
		<path id="Vector" class="s0" d="m20 10c0 5.52-4.48 10-10 10c-5.52 0-10-4.48-10-10c0-5.52 4.48-10 10-10c5.52 0 10 4.48 10 10z" />
		<path id="Vector" class="s1" d="m12.08 19.78l-5.79-5.83l-0.33-5.17l2.6-2.38l5.1-0.41l6.11 6.11c-0.83 3.84-3.85 6.85-7.69 7.67z" />
		<path id="Vector" class="s2" d="m15.34 9.08c0.05 0.3 0.08 0.61 0.08 0.92c0 2.99-2.43 5.42-5.42 5.42c-2.99 0-5.42-2.43-5.42-5.42c0-2.99 2.43-5.42 5.42-5.42c1.41 0 2.7 0.54 3.66 1.42l-1.41 1.51c-0.6-0.54-1.39-0.87-2.25-0.87c-1.86 0-3.37 1.51-3.37 3.37c0 1.86 1.51 3.37 3.37 3.37c1.51 0 2.79-1 3.21-2.37h-3v-1.92h5.12z" />
		<path id="Vector" class="s3" d="m6.86 8.78l-1.65-1.33c0.91-1.71 2.71-2.88 4.79-2.88c1.41 0 2.7 0.54 3.66 1.42l-1.41 1.51c-0.6-0.54-1.39-0.87-2.25-0.87c-1.43 0-2.65 0.89-3.14 2.15z" />
		<path id="Vector" class="s4" d="m6.86 11.2l-1.64 1.35c-0.41-0.76-0.64-1.63-0.64-2.55c0-0.92 0.23-1.78 0.63-2.54l1.65 1.33c-0.15 0.38-0.23 0.79-0.23 1.21c0 0.42 0.08 0.83 0.23 1.2z" />
		<path id="Vector" class="s5" d="m13.52 14.12c-0.95 0.81-2.18 1.3-3.52 1.3c-2.07 0-3.87-1.16-4.78-2.87l1.64-1.35c0.48 1.26 1.71 2.16 3.14 2.16c0.69 0 1.34-0.21 1.87-0.57l1.65 1.32z" />
		<path id="Vector" class="s2" d="m13.52 14.12l-1.65-1.32c0.63-0.42 1.11-1.05 1.34-1.8h-3v-1.92h5.12c0.05 0.3 0.08 0.61 0.08 0.92c0 1.65-0.74 3.12-1.9 4.12z" />
	</g>
</svg>