<svg version="1.2" baseProfile="tiny-ps" xmlns="http://www.w3.org/2000/svg" viewBox="0 0 20 20" width="20" height="20">
	<title>Group 171</title>
	<defs>
		<linearGradient id="grd1" gradientUnits="userSpaceOnUse"  x1="6.6" y1="2.8" x2="11.7" y2="13.6">
			<stop offset="0" stop-color="#00c3ff"  />
			<stop offset="1" stop-color="#00b0ed"  />
		</linearGradient>
		<linearGradient id="grd2" gradientUnits="userSpaceOnUse"  x1="14.2" y1="12.2" x2="-14.5" y2="-3.1">
			<stop offset="0" stop-color="#00b0ed" stop-opacity="0" />
			<stop offset="1" stop-color="#00a2ce"  />
		</linearGradient>
		<linearGradient id="grd3" gradientUnits="userSpaceOnUse"  x1="10" y1="17.1" x2="10" y2="19.7">
			<stop offset="0" stop-color="#00b0ed" stop-opacity="0" />
			<stop offset="1" stop-color="#00a2ce"  />
		</linearGradient>
		<linearGradient id="grd4" gradientUnits="userSpaceOnUse"  x1="19.1" y1="18.9" x2="9.9" y2="9.7">
			<stop offset="0" stop-color="#00b0ed" stop-opacity="0" />
			<stop offset="1" stop-color="#00a2ce"  />
		</linearGradient>
	</defs>
	<style>
		tspan { white-space:pre }
		.s0 { fill: url(#grd1) } 
		.s1 { fill: url(#grd2) } 
		.s2 { fill: url(#grd3) } 
		.s3 { fill: url(#grd4) } 
		.s4 { fill: #ffffff } 
	</style>
	<g id="Group 171">
		<path id="Vector" class="s0" d="m16.42 19.66c-4.28 0.46-8.57 0.46-12.85 0c-1.71-0.18-3.05-1.53-3.23-3.23c-0.46-4.28-0.46-8.57 0-12.85c0.18-1.71 1.53-3.05 3.23-3.23c4.28-0.46 8.57-0.46 12.85 0c1.71 0.18 3.05 1.53 3.24 3.23c0.46 4.28 0.46 8.57 0 12.85c-0.18 1.71-1.53 3.05-3.23 3.23z" />
		<path id="Vector" class="s1" d="m18.57 4.3c0.41 3.8 0.41 7.6 0 11.4c-0.16 1.51-1.36 2.71-2.87 2.87c-3.8 0.41-7.6 0.41-11.4 0c-1.51-0.16-2.71-1.36-2.87-2.87c-0.41-3.8-0.41-7.6 0-11.4c0.16-1.51 1.36-2.71 2.87-2.87c3.8-0.4 7.6-0.4 11.4 0c1.51 0.16 2.71 1.36 2.87 2.87v0z" />
		<path id="Vector" class="s2" d="m19.7 16.01c-0.01 0.14-0.03 0.28-0.04 0.41c-0.18 1.71-1.53 3.05-3.23 3.23c-4.28 0.46-8.57 0.46-12.85 0c-1.71-0.18-3.05-1.53-3.23-3.23c-0.01-0.14-0.03-0.28-0.04-0.41h19.4z" />
		<path id="Vector" class="s3" d="m20 9.3c0.03 2.38-0.08 4.75-0.34 7.13c-0.18 1.71-1.53 3.05-3.23 3.23c-2.13 0.23-4.27 0.34-6.4 0.34l-6.22-6.07c1.42 0.11 2.49-0.33 3.11-0.69l-1.02-1.03c-0.59-0.52-0.74-1.16-0.74-1.16c0.17 0.08 0.42 0.08 0.64 0.06l-0.73-0.74c-0.91-0.8-0.84-1.89-0.84-1.89c0.34 0.24 0.93 0.3 1.13 0.31c-0.01-0.01-0.01-0.01-0.02-0.02c-0.08-0.07-0.15-0.14-0.22-0.22c-1.5-1.35-0.48-3.13-0.48-3.13l0.87 0.87h0c0 0 0 0 0 0c1.84 1.58 3.77 1.74 4.37 1.75c-0.02-0.12-0.04-0.24-0.05-0.36c0-0.05 0-0.1 0-0.15c0-1.42 1.15-2.58 2.58-2.58c0.72 0 1.38 0.3 1.85 0.78c0.1-0.01 0.24-0.04 0.42-0.09c0.31-0.08 0.72-0.23 1.18-0.5l4.15 4.15v0z" />
		<path id="Vector" class="s4" d="m16.2 6.15c0 0-0.48 0.82-1.22 1.32c0 0.02 0 0.04 0 0.06c0 0.03 0 0.06 0 0.09c0 0.05 0 0.1 0 0.15c0 4.02-3.26 7.28-7.28 7.28c-1.43 0-2.76-0.41-3.89-1.12c2.29 0.18 3.69-1.1 3.69-1.1c-1.95-0.12-2.34-1.78-2.34-1.78c0.39 0.17 1.17-0.02 1.17-0.02c-2.22-0.61-2.1-2.54-2.1-2.54c0.42 0.29 1.2 0.32 1.2 0.32c-1.93-1.37-0.78-3.37-0.78-3.37c2.06 2.39 4.55 2.61 5.24 2.62c-0.02-0.12-0.04-0.24-0.05-0.36c0-0.05 0-0.1 0-0.15c0-1.42 1.15-2.58 2.58-2.58c0.72 0 1.38 0.3 1.85 0.78c0.1-0.01 0.24-0.04 0.42-0.09c0.31-0.08 0.72-0.23 1.18-0.5c0 0-0.23 0.87-0.98 1.34c0 0.01 0 0.02 0.01 0.03c0.22-0.03 0.89-0.14 1.33-0.37v0z" />
	</g>
</svg>